{
	"patcher" : 	{
		"fileversion" : 1,
		"appversion" : 		{
			"major" : 8,
			"minor" : 2,
			"revision" : 0,
			"architecture" : "x64",
			"modernui" : 1
		}
,
		"classnamespace" : "box",
		"rect" : [ 322.0, 235.0, 1080.0, 642.0 ],
		"bglocked" : 0,
		"openinpresentation" : 0,
		"default_fontsize" : 12.0,
		"default_fontface" : 0,
		"default_fontname" : "Arial",
		"gridonopen" : 1,
		"gridsize" : [ 15.0, 15.0 ],
		"gridsnaponopen" : 1,
		"objectsnaponopen" : 1,
		"statusbarvisible" : 2,
		"toolbarvisible" : 1,
		"lefttoolbarpinned" : 0,
		"toptoolbarpinned" : 0,
		"righttoolbarpinned" : 0,
		"bottomtoolbarpinned" : 0,
		"toolbars_unpinned_last_save" : 0,
		"tallnewobj" : 0,
		"boxanimatetime" : 200,
		"enablehscroll" : 1,
		"enablevscroll" : 1,
		"devicewidth" : 0.0,
		"description" : "",
		"digest" : "",
		"tags" : "",
		"style" : "",
		"subpatcher_template" : "",
		"showontab" : 1,
		"helpsidebarclosed" : 1,
		"assistshowspatchername" : 0,
		"boxes" : [ 			{
				"box" : 				{
					"id" : "obj-2",
					"maxclass" : "newobj",
					"numinlets" : 0,
					"numoutlets" : 0,
					"patcher" : 					{
						"fileversion" : 1,
						"appversion" : 						{
							"major" : 8,
							"minor" : 2,
							"revision" : 0,
							"architecture" : "x64",
							"modernui" : 1
						}
,
						"classnamespace" : "box",
						"rect" : [ 0.0, 26.0, 1080.0, 616.0 ],
						"bglocked" : 0,
						"openinpresentation" : 0,
						"default_fontsize" : 12.0,
						"default_fontface" : 0,
						"default_fontname" : "Arial",
						"gridonopen" : 1,
						"gridsize" : [ 15.0, 15.0 ],
						"gridsnaponopen" : 1,
						"objectsnaponopen" : 1,
						"statusbarvisible" : 2,
						"toolbarvisible" : 1,
						"lefttoolbarpinned" : 0,
						"toptoolbarpinned" : 0,
						"righttoolbarpinned" : 0,
						"bottomtoolbarpinned" : 0,
						"toolbars_unpinned_last_save" : 0,
						"tallnewobj" : 0,
						"boxanimatetime" : 200,
						"enablehscroll" : 1,
						"enablevscroll" : 1,
						"devicewidth" : 0.0,
						"description" : "",
						"digest" : "",
						"tags" : "",
						"style" : "",
						"subpatcher_template" : "",
						"showontab" : 1,
						"assistshowspatchername" : 0,
						"boxes" : [ 							{
								"box" : 								{
									"id" : "obj-1",
									"maxclass" : "newobj",
									"numinlets" : 1,
									"numoutlets" : 1,
									"outlettype" : [ "int" ],
									"patching_rect" : [ 121.0, 327.0, 22.0, 22.0 ],
									"text" : "t 1"
								}

							}
, 							{
								"box" : 								{
									"id" : "obj-4",
									"maxclass" : "message",
									"numinlets" : 2,
									"numoutlets" : 1,
									"outlettype" : [ "" ],
									"patching_rect" : [ 297.809524178504944, 406.0, 71.0, 22.0 ],
									"text" : "texture tex1"
								}

							}
, 							{
								"box" : 								{
									"id" : "obj-21",
									"maxclass" : "newobj",
									"numinlets" : 1,
									"numoutlets" : 1,
									"outlettype" : [ "int" ],
									"patching_rect" : [ 90.0, 327.0, 22.0, 22.0 ],
									"text" : "t 3"
								}

							}
, 							{
								"box" : 								{
									"id" : "obj-20",
									"maxclass" : "newobj",
									"numinlets" : 2,
									"numoutlets" : 2,
									"outlettype" : [ "bang", "" ],
									"patching_rect" : [ 90.0, 291.0, 34.0, 22.0 ],
									"text" : "sel 1"
								}

							}
, 							{
								"box" : 								{
									"id" : "obj-19",
									"maxclass" : "newobj",
									"numinlets" : 0,
									"numoutlets" : 1,
									"outlettype" : [ "" ],
									"patching_rect" : [ 90.0, 262.0, 149.0, 22.0 ],
									"text" : "r enable_multiple_textures"
								}

							}
, 							{
								"box" : 								{
									"id" : "obj-17",
									"maxclass" : "newobj",
									"numinlets" : 1,
									"numoutlets" : 0,
									"patching_rect" : [ 128.0, 70.0, 151.0, 22.0 ],
									"text" : "s enable_multiple_textures"
								}

							}
, 							{
								"box" : 								{
									"bubble" : 1,
									"id" : "obj-16",
									"maxclass" : "comment",
									"numinlets" : 1,
									"numoutlets" : 0,
									"patching_rect" : [ 608.0, 175.619042873382568, 170.0, 24.0 ],
									"text" : "@texture_name set to tex3"
								}

							}
, 							{
								"box" : 								{
									"id" : "obj-15",
									"maxclass" : "newobj",
									"numinlets" : 1,
									"numoutlets" : 2,
									"outlettype" : [ "jit_gl_texture", "" ],
									"patching_rect" : [ 43.642860054969788, 175.619042873382568, 532.0, 22.0 ],
									"text" : "jit.movie @output_texture 1 @vol 0 @moviefile sunflower.mp4 @texture_name tex3 @automatic 0"
								}

							}
, 							{
								"box" : 								{
									"bubble" : 1,
									"id" : "obj-14",
									"maxclass" : "comment",
									"numinlets" : 1,
									"numoutlets" : 0,
									"patching_rect" : [ 425.809524178504944, 359.619042873382568, 230.0, 24.0 ],
									"text" : "Send texture names to jit.gl.meshwarp"
								}

							}
, 							{
								"box" : 								{
									"bubble" : 1,
									"id" : "obj-13",
									"maxclass" : "comment",
									"numinlets" : 1,
									"numoutlets" : 0,
									"patching_rect" : [ 608.0, 98.619042873382568, 170.0, 24.0 ],
									"text" : "@texture_name set to tex1"
								}

							}
, 							{
								"box" : 								{
									"bubble" : 1,
									"id" : "obj-12",
									"maxclass" : "comment",
									"numinlets" : 1,
									"numoutlets" : 0,
									"patching_rect" : [ 608.0, 139.619042873382568, 170.0, 24.0 ],
									"text" : "@texture_name set to tex2"
								}

							}
, 							{
								"box" : 								{
									"id" : "obj-11",
									"maxclass" : "toggle",
									"numinlets" : 1,
									"numoutlets" : 1,
									"outlettype" : [ "int" ],
									"parameter_enable" : 0,
									"patching_rect" : [ 43.642860054969788, 24.0, 38.0, 38.0 ]
								}

							}
, 							{
								"box" : 								{
									"id" : "obj-9",
									"maxclass" : "message",
									"numinlets" : 2,
									"numoutlets" : 1,
									"outlettype" : [ "" ],
									"patching_rect" : [ 43.642860054969788, 70.0, 77.0, 22.0 ],
									"text" : "automatic $1"
								}

							}
, 							{
								"box" : 								{
									"id" : "obj-2",
									"maxclass" : "newobj",
									"numinlets" : 1,
									"numoutlets" : 2,
									"outlettype" : [ "jit_gl_texture", "" ],
									"patching_rect" : [ 52.190475821495056, 99.619042873382568, 519.0, 22.0 ],
									"text" : "jit.movie @output_texture 1 @vol 0 @moviefile blading.mov @texture_name tex1 @automatic 0"
								}

							}
, 							{
								"box" : 								{
									"bubble" : 1,
									"id" : "obj-38",
									"maxclass" : "comment",
									"numinlets" : 1,
									"numoutlets" : 0,
									"patching_rect" : [ 143.809524178504944, 359.619042873382568, 127.0, 24.0 ],
									"text" : "Number of meshes"
								}

							}
, 							{
								"box" : 								{
									"id" : "obj-30",
									"maxclass" : "number",
									"numinlets" : 1,
									"numoutlets" : 2,
									"outlettype" : [ "", "bang" ],
									"parameter_enable" : 0,
									"patching_rect" : [ 90.0, 359.619042873382568, 50.0, 22.0 ]
								}

							}
, 							{
								"box" : 								{
									"id" : "obj-28",
									"maxclass" : "message",
									"numinlets" : 2,
									"numoutlets" : 1,
									"outlettype" : [ "" ],
									"patching_rect" : [ 90.0, 388.619042873382568, 84.0, 22.0 ],
									"text" : "meshcount $1"
								}

							}
, 							{
								"box" : 								{
									"id" : "obj-29",
									"maxclass" : "message",
									"numinlets" : 2,
									"numoutlets" : 1,
									"outlettype" : [ "" ],
									"patching_rect" : [ 297.809524178504944, 359.619042873382568, 123.0, 22.0 ],
									"text" : "texture tex1 tex2 tex3"
								}

							}
, 							{
								"box" : 								{
									"id" : "obj-18",
									"maxclass" : "newobj",
									"numinlets" : 1,
									"numoutlets" : 2,
									"outlettype" : [ "jit_gl_texture", "" ],
									"patching_rect" : [ 65.190475821495056, 140.619042873382568, 528.0, 22.0 ],
									"text" : "jit.movie @output_texture 1 @vol 0 @moviefile chickens.mp4 @texture_name tex2 @automatic 0"
								}

							}
, 							{
								"box" : 								{
									"id" : "obj-3",
									"maxclass" : "newobj",
									"numinlets" : 1,
									"numoutlets" : 0,
									"patching_rect" : [ 90.0, 467.119050145149231, 73.0, 22.0 ],
									"text" : "s meshwarp"
								}

							}
 ],
						"lines" : [ 							{
								"patchline" : 								{
									"destination" : [ "obj-30", 0 ],
									"source" : [ "obj-1", 0 ]
								}

							}
, 							{
								"patchline" : 								{
									"destination" : [ "obj-17", 0 ],
									"order" : 0,
									"source" : [ "obj-11", 0 ]
								}

							}
, 							{
								"patchline" : 								{
									"destination" : [ "obj-9", 0 ],
									"order" : 1,
									"source" : [ "obj-11", 0 ]
								}

							}
, 							{
								"patchline" : 								{
									"destination" : [ "obj-20", 0 ],
									"source" : [ "obj-19", 0 ]
								}

							}
, 							{
								"patchline" : 								{
									"destination" : [ "obj-1", 0 ],
									"source" : [ "obj-20", 1 ]
								}

							}
, 							{
								"patchline" : 								{
									"destination" : [ "obj-21", 0 ],
									"order" : 1,
									"source" : [ "obj-20", 0 ]
								}

							}
, 							{
								"patchline" : 								{
									"destination" : [ "obj-29", 0 ],
									"order" : 0,
									"source" : [ "obj-20", 0 ]
								}

							}
, 							{
								"patchline" : 								{
									"destination" : [ "obj-30", 0 ],
									"source" : [ "obj-21", 0 ]
								}

							}
, 							{
								"patchline" : 								{
									"destination" : [ "obj-3", 0 ],
									"source" : [ "obj-28", 0 ]
								}

							}
, 							{
								"patchline" : 								{
									"destination" : [ "obj-3", 0 ],
									"source" : [ "obj-29", 0 ]
								}

							}
, 							{
								"patchline" : 								{
									"destination" : [ "obj-28", 0 ],
									"source" : [ "obj-30", 0 ]
								}

							}
, 							{
								"patchline" : 								{
									"destination" : [ "obj-3", 0 ],
									"source" : [ "obj-4", 0 ]
								}

							}
, 							{
								"patchline" : 								{
									"destination" : [ "obj-15", 0 ],
									"order" : 2,
									"source" : [ "obj-9", 0 ]
								}

							}
, 							{
								"patchline" : 								{
									"destination" : [ "obj-18", 0 ],
									"order" : 0,
									"source" : [ "obj-9", 0 ]
								}

							}
, 							{
								"patchline" : 								{
									"destination" : [ "obj-2", 0 ],
									"order" : 1,
									"source" : [ "obj-9", 0 ]
								}

							}
 ]
					}
,
					"patching_rect" : [ 214.0, 56.0, 109.0, 22.0 ],
					"saved_object_attributes" : 					{
						"description" : "",
						"digest" : "",
						"globalpatchername" : "",
						"tags" : ""
					}
,
					"text" : "p multiple_textures"
				}

			}
, 			{
				"box" : 				{
					"id" : "obj-1",
					"maxclass" : "newobj",
					"numinlets" : 0,
					"numoutlets" : 0,
					"patcher" : 					{
						"fileversion" : 1,
						"appversion" : 						{
							"major" : 8,
							"minor" : 2,
							"revision" : 0,
							"architecture" : "x64",
							"modernui" : 1
						}
,
						"classnamespace" : "box",
						"rect" : [ 0.0, 26.0, 1080.0, 616.0 ],
						"bglocked" : 0,
						"openinpresentation" : 0,
						"default_fontsize" : 12.0,
						"default_fontface" : 0,
						"default_fontname" : "Arial",
						"gridonopen" : 1,
						"gridsize" : [ 15.0, 15.0 ],
						"gridsnaponopen" : 1,
						"objectsnaponopen" : 1,
						"statusbarvisible" : 2,
						"toolbarvisible" : 1,
						"lefttoolbarpinned" : 0,
						"toptoolbarpinned" : 0,
						"righttoolbarpinned" : 0,
						"bottomtoolbarpinned" : 0,
						"toolbars_unpinned_last_save" : 0,
						"tallnewobj" : 0,
						"boxanimatetime" : 200,
						"enablehscroll" : 1,
						"enablevscroll" : 1,
						"devicewidth" : 0.0,
						"description" : "",
						"digest" : "",
						"tags" : "",
						"style" : "",
						"subpatcher_template" : "",
						"showontab" : 1,
						"assistshowspatchername" : 0,
						"boxes" : [ 							{
								"box" : 								{
									"id" : "obj-7",
									"maxclass" : "number",
									"numinlets" : 1,
									"numoutlets" : 2,
									"outlettype" : [ "", "bang" ],
									"parameter_enable" : 0,
									"patching_rect" : [ 173.166666666666515, 46.023820519447327, 50.0, 22.0 ]
								}

							}
, 							{
								"box" : 								{
									"format" : 6,
									"id" : "obj-9",
									"maxclass" : "flonum",
									"numinlets" : 1,
									"numoutlets" : 2,
									"outlettype" : [ "", "bang" ],
									"parameter_enable" : 0,
									"patching_rect" : [ 120.166666666666515, 209.261913895606995, 50.0, 22.0 ]
								}

							}
, 							{
								"box" : 								{
									"format" : 6,
									"id" : "obj-8",
									"maxclass" : "flonum",
									"numinlets" : 1,
									"numoutlets" : 2,
									"outlettype" : [ "", "bang" ],
									"parameter_enable" : 0,
									"patching_rect" : [ 485.999999999999773, 187.0, 50.0, 22.0 ]
								}

							}
, 							{
								"box" : 								{
									"id" : "obj-6",
									"maxclass" : "comment",
									"numinlets" : 1,
									"numoutlets" : 0,
									"patching_rect" : [ 520.33333333333303, 218.261913895606995, 78.0, 20.0 ],
									"text" : "vertical scale"
								}

							}
, 							{
								"box" : 								{
									"id" : "obj-4",
									"maxclass" : "comment",
									"numinlets" : 1,
									"numoutlets" : 0,
									"patching_rect" : [ 428.999999999999716, 218.261913895606995, 92.0, 20.0 ],
									"text" : "horizontal scale"
								}

							}
, 							{
								"box" : 								{
									"id" : "obj-2",
									"maxclass" : "comment",
									"numinlets" : 1,
									"numoutlets" : 0,
									"patching_rect" : [ 359.222222222222001, 218.261913895606995, 70.0, 20.0 ],
									"text" : "mesh index"
								}

							}
, 							{
								"box" : 								{
									"bubble" : 1,
									"id" : "obj-1",
									"maxclass" : "comment",
									"numinlets" : 1,
									"numoutlets" : 0,
									"patching_rect" : [ 173.166666666666515, 208.261913895606995, 116.0, 24.0 ],
									"text" : "Scale all meshes"
								}

							}
, 							{
								"box" : 								{
									"id" : "obj-3",
									"maxclass" : "newobj",
									"numinlets" : 1,
									"numoutlets" : 0,
									"patching_rect" : [ 49.666666666666515, 367.119050145149231, 73.0, 22.0 ],
									"text" : "s meshwarp"
								}

							}
, 							{
								"box" : 								{
									"id" : "obj-50",
									"maxclass" : "button",
									"numinlets" : 1,
									"numoutlets" : 1,
									"outlettype" : [ "bang" ],
									"parameter_enable" : 0,
									"patching_rect" : [ 292.333333333333258, 238.119050145149231, 24.0, 24.0 ]
								}

							}
, 							{
								"box" : 								{
									"id" : "obj-46",
									"maxclass" : "button",
									"numinlets" : 1,
									"numoutlets" : 1,
									"outlettype" : [ "bang" ],
									"parameter_enable" : 0,
									"patching_rect" : [ 292.333333333333258, 87.761913895606995, 24.0, 24.0 ]
								}

							}
, 							{
								"box" : 								{
									"id" : "obj-43",
									"maxclass" : "number",
									"numinlets" : 1,
									"numoutlets" : 2,
									"outlettype" : [ "", "bang" ],
									"parameter_enable" : 0,
									"patching_rect" : [ 369.222222222222058, 238.119050145149231, 50.0, 22.0 ]
								}

							}
, 							{
								"box" : 								{
									"format" : 6,
									"id" : "obj-18",
									"maxclass" : "flonum",
									"numinlets" : 1,
									"numoutlets" : 2,
									"outlettype" : [ "", "bang" ],
									"parameter_enable" : 0,
									"patching_rect" : [ 522.999999999999545, 238.119050145149231, 50.0, 22.0 ]
								}

							}
, 							{
								"box" : 								{
									"format" : 6,
									"id" : "obj-27",
									"maxclass" : "flonum",
									"numinlets" : 1,
									"numoutlets" : 2,
									"outlettype" : [ "", "bang" ],
									"parameter_enable" : 0,
									"patching_rect" : [ 446.111111111110802, 238.119050145149231, 50.0, 22.0 ]
								}

							}
, 							{
								"box" : 								{
									"id" : "obj-40",
									"maxclass" : "newobj",
									"numinlets" : 4,
									"numoutlets" : 1,
									"outlettype" : [ "" ],
									"patching_rect" : [ 292.333333333333258, 280.119050145149231, 249.666666666666345, 22.0 ],
									"text" : "pack scale_single_mesh i 1. 1."
								}

							}
, 							{
								"box" : 								{
									"format" : 6,
									"id" : "obj-26",
									"maxclass" : "flonum",
									"numinlets" : 1,
									"numoutlets" : 2,
									"outlettype" : [ "", "bang" ],
									"parameter_enable" : 0,
									"patching_rect" : [ 173.166666666666515, 246.119050145149231, 50.0, 22.0 ]
								}

							}
, 							{
								"box" : 								{
									"format" : 6,
									"id" : "obj-19",
									"maxclass" : "flonum",
									"numinlets" : 1,
									"numoutlets" : 2,
									"outlettype" : [ "", "bang" ],
									"parameter_enable" : 0,
									"patching_rect" : [ 120.166666666666515, 246.119050145149231, 50.0, 22.0 ]
								}

							}
, 							{
								"box" : 								{
									"id" : "obj-17",
									"maxclass" : "newobj",
									"numinlets" : 3,
									"numoutlets" : 1,
									"outlettype" : [ "" ],
									"patching_rect" : [ 67.916666666666515, 280.119050145149231, 124.25, 22.0 ],
									"text" : "pak scale 1. 1."
								}

							}
, 							{
								"box" : 								{
									"bubble" : 1,
									"bubbleside" : 3,
									"id" : "obj-35",
									"maxclass" : "comment",
									"numinlets" : 1,
									"numoutlets" : 0,
									"patching_rect" : [ 18.166666666666515, 46.023820519447327, 123.0, 24.0 ],
									"text" : "Resize all meshes"
								}

							}
, 							{
								"box" : 								{
									"id" : "obj-32",
									"maxclass" : "comment",
									"numinlets" : 1,
									"numoutlets" : 0,
									"patching_rect" : [ 195.666666666666515, 72.0, 69.0, 20.0 ],
									"text" : "vertical dim"
								}

							}
, 							{
								"box" : 								{
									"id" : "obj-31",
									"maxclass" : "comment",
									"numinlets" : 1,
									"numoutlets" : 0,
									"patching_rect" : [ 109.166666666666515, 72.023820519447327, 83.0, 20.0 ],
									"text" : "horizontal dim"
								}

							}
, 							{
								"box" : 								{
									"bubble" : 1,
									"bubbleside" : 2,
									"id" : "obj-29",
									"linecount" : 2,
									"maxclass" : "comment",
									"numinlets" : 1,
									"numoutlets" : 0,
									"patching_rect" : [ 317.333333333333258, 14.761913895606995, 286.0, 53.0 ],
									"text" : "Resize single mesh. \nSelect a mesh by its index (0 .. meshes-1) to resize."
								}

							}
, 							{
								"box" : 								{
									"id" : "obj-24",
									"maxclass" : "comment",
									"numinlets" : 1,
									"numoutlets" : 0,
									"patching_rect" : [ 517.333333333333258, 69.761913895606995, 69.0, 20.0 ],
									"text" : "vertical dim"
								}

							}
, 							{
								"box" : 								{
									"id" : "obj-22",
									"maxclass" : "comment",
									"numinlets" : 1,
									"numoutlets" : 0,
									"patching_rect" : [ 433.0, 69.761913895606995, 83.0, 20.0 ],
									"text" : "horizontal dim"
								}

							}
, 							{
								"box" : 								{
									"id" : "obj-21",
									"maxclass" : "comment",
									"numinlets" : 1,
									"numoutlets" : 0,
									"patching_rect" : [ 359.666666666666515, 69.761913895606995, 70.0, 20.0 ],
									"text" : "mesh index"
								}

							}
, 							{
								"box" : 								{
									"id" : "obj-37",
									"maxclass" : "number",
									"numinlets" : 1,
									"numoutlets" : 2,
									"outlettype" : [ "", "bang" ],
									"parameter_enable" : 0,
									"patching_rect" : [ 524.333333333333258, 89.761913895606995, 50.0, 22.0 ]
								}

							}
, 							{
								"box" : 								{
									"id" : "obj-33",
									"maxclass" : "number",
									"numinlets" : 1,
									"numoutlets" : 2,
									"outlettype" : [ "", "bang" ],
									"parameter_enable" : 0,
									"patching_rect" : [ 446.999999999999886, 89.761913895606995, 50.0, 22.0 ]
								}

							}
, 							{
								"box" : 								{
									"id" : "obj-34",
									"maxclass" : "number",
									"minimum" : 0,
									"numinlets" : 1,
									"numoutlets" : 2,
									"outlettype" : [ "", "bang" ],
									"parameter_enable" : 0,
									"patching_rect" : [ 369.666666666666629, 90.761913895606995, 50.0, 22.0 ]
								}

							}
, 							{
								"box" : 								{
									"id" : "obj-36",
									"maxclass" : "newobj",
									"numinlets" : 4,
									"numoutlets" : 1,
									"outlettype" : [ "" ],
									"patching_rect" : [ 292.333333333333258, 125.761913895606995, 251.0, 22.0 ],
									"text" : "pack resize_single_mesh i 4 4"
								}

							}
, 							{
								"box" : 								{
									"id" : "obj-25",
									"maxclass" : "number",
									"numinlets" : 1,
									"numoutlets" : 2,
									"outlettype" : [ "", "bang" ],
									"parameter_enable" : 0,
									"patching_rect" : [ 201.666666666666515, 95.119050145149231, 50.0, 22.0 ]
								}

							}
, 							{
								"box" : 								{
									"id" : "obj-23",
									"maxclass" : "number",
									"numinlets" : 1,
									"numoutlets" : 2,
									"outlettype" : [ "", "bang" ],
									"parameter_enable" : 0,
									"patching_rect" : [ 125.666666666666515, 95.119050145149231, 50.0, 22.0 ]
								}

							}
, 							{
								"box" : 								{
									"id" : "obj-5",
									"maxclass" : "newobj",
									"numinlets" : 3,
									"numoutlets" : 1,
									"outlettype" : [ "" ],
									"patching_rect" : [ 49.666666666666515, 131.119050145149231, 171.0, 22.0 ],
									"text" : "pak meshdim 4 4"
								}

							}
 ],
						"lines" : [ 							{
								"patchline" : 								{
									"destination" : [ "obj-3", 0 ],
									"midpoints" : [ 77.416666666666515, 354.0, 59.166666666666515, 354.0 ],
									"source" : [ "obj-17", 0 ]
								}

							}
, 							{
								"patchline" : 								{
									"destination" : [ "obj-40", 3 ],
									"order" : 0,
									"source" : [ "obj-18", 0 ]
								}

							}
, 							{
								"patchline" : 								{
									"destination" : [ "obj-50", 0 ],
									"order" : 1,
									"source" : [ "obj-18", 0 ]
								}

							}
, 							{
								"patchline" : 								{
									"destination" : [ "obj-17", 1 ],
									"source" : [ "obj-19", 0 ]
								}

							}
, 							{
								"patchline" : 								{
									"destination" : [ "obj-5", 1 ],
									"source" : [ "obj-23", 0 ]
								}

							}
, 							{
								"patchline" : 								{
									"destination" : [ "obj-5", 2 ],
									"source" : [ "obj-25", 0 ]
								}

							}
, 							{
								"patchline" : 								{
									"destination" : [ "obj-17", 2 ],
									"source" : [ "obj-26", 0 ]
								}

							}
, 							{
								"patchline" : 								{
									"destination" : [ "obj-40", 2 ],
									"order" : 0,
									"source" : [ "obj-27", 0 ]
								}

							}
, 							{
								"patchline" : 								{
									"destination" : [ "obj-50", 0 ],
									"order" : 1,
									"source" : [ "obj-27", 0 ]
								}

							}
, 							{
								"patchline" : 								{
									"destination" : [ "obj-36", 2 ],
									"order" : 0,
									"source" : [ "obj-33", 0 ]
								}

							}
, 							{
								"patchline" : 								{
									"destination" : [ "obj-46", 0 ],
									"order" : 1,
									"source" : [ "obj-33", 0 ]
								}

							}
, 							{
								"patchline" : 								{
									"destination" : [ "obj-36", 1 ],
									"source" : [ "obj-34", 0 ]
								}

							}
, 							{
								"patchline" : 								{
									"destination" : [ "obj-3", 0 ],
									"midpoints" : [ 301.833333333333258, 165.0, 59.166666666666515, 165.0 ],
									"source" : [ "obj-36", 0 ]
								}

							}
, 							{
								"patchline" : 								{
									"destination" : [ "obj-36", 3 ],
									"order" : 0,
									"source" : [ "obj-37", 0 ]
								}

							}
, 							{
								"patchline" : 								{
									"destination" : [ "obj-46", 0 ],
									"order" : 1,
									"source" : [ "obj-37", 0 ]
								}

							}
, 							{
								"patchline" : 								{
									"destination" : [ "obj-3", 0 ],
									"midpoints" : [ 301.833333333333258, 354.0, 59.166666666666515, 354.0 ],
									"source" : [ "obj-40", 0 ]
								}

							}
, 							{
								"patchline" : 								{
									"destination" : [ "obj-40", 1 ],
									"source" : [ "obj-43", 0 ]
								}

							}
, 							{
								"patchline" : 								{
									"destination" : [ "obj-36", 0 ],
									"source" : [ "obj-46", 0 ]
								}

							}
, 							{
								"patchline" : 								{
									"destination" : [ "obj-3", 0 ],
									"midpoints" : [ 59.166666666666515, 144.0, 59.166666666666515, 144.0 ],
									"source" : [ "obj-5", 0 ]
								}

							}
, 							{
								"patchline" : 								{
									"destination" : [ "obj-40", 0 ],
									"source" : [ "obj-50", 0 ]
								}

							}
, 							{
								"patchline" : 								{
									"destination" : [ "obj-23", 0 ],
									"order" : 1,
									"source" : [ "obj-7", 0 ]
								}

							}
, 							{
								"patchline" : 								{
									"destination" : [ "obj-25", 0 ],
									"order" : 0,
									"source" : [ "obj-7", 0 ]
								}

							}
, 							{
								"patchline" : 								{
									"destination" : [ "obj-18", 0 ],
									"order" : 0,
									"source" : [ "obj-8", 0 ]
								}

							}
, 							{
								"patchline" : 								{
									"destination" : [ "obj-27", 0 ],
									"order" : 1,
									"source" : [ "obj-8", 0 ]
								}

							}
, 							{
								"patchline" : 								{
									"destination" : [ "obj-19", 0 ],
									"order" : 1,
									"source" : [ "obj-9", 0 ]
								}

							}
, 							{
								"patchline" : 								{
									"destination" : [ "obj-26", 0 ],
									"order" : 0,
									"source" : [ "obj-9", 0 ]
								}

							}
 ]
					}
,
					"patching_rect" : [ 121.0, 56.0, 73.0, 22.0 ],
					"saved_object_attributes" : 					{
						"description" : "",
						"digest" : "",
						"globalpatchername" : "",
						"tags" : ""
					}
,
					"text" : "p dim_scale"
				}

			}
, 			{
				"box" : 				{
					"id" : "obj-51",
					"maxclass" : "newobj",
					"numinlets" : 0,
					"numoutlets" : 0,
					"patcher" : 					{
						"fileversion" : 1,
						"appversion" : 						{
							"major" : 8,
							"minor" : 2,
							"revision" : 0,
							"architecture" : "x64",
							"modernui" : 1
						}
,
						"classnamespace" : "box",
						"rect" : [ 322.0, 261.0, 1080.0, 616.0 ],
						"bglocked" : 0,
						"openinpresentation" : 0,
						"default_fontsize" : 12.0,
						"default_fontface" : 0,
						"default_fontname" : "Arial",
						"gridonopen" : 1,
						"gridsize" : [ 15.0, 15.0 ],
						"gridsnaponopen" : 1,
						"objectsnaponopen" : 1,
						"statusbarvisible" : 2,
						"toolbarvisible" : 1,
						"lefttoolbarpinned" : 0,
						"toptoolbarpinned" : 0,
						"righttoolbarpinned" : 0,
						"bottomtoolbarpinned" : 0,
						"toolbars_unpinned_last_save" : 0,
						"tallnewobj" : 0,
						"boxanimatetime" : 200,
						"enablehscroll" : 1,
						"enablevscroll" : 1,
						"devicewidth" : 0.0,
						"description" : "",
						"digest" : "",
						"tags" : "",
						"style" : "",
						"subpatcher_template" : "",
						"showontab" : 1,
						"assistshowspatchername" : 0,
						"boxes" : [ 							{
								"box" : 								{
									"id" : "obj-40",
									"maxclass" : "number",
									"numinlets" : 1,
									"numoutlets" : 2,
									"outlettype" : [ "", "bang" ],
									"parameter_enable" : 0,
									"patching_rect" : [ 790.0, 322.0, 50.0, 22.0 ]
								}

							}
, 							{
								"box" : 								{
									"id" : "obj-36",
									"maxclass" : "message",
									"numinlets" : 2,
									"numoutlets" : 1,
									"outlettype" : [ "" ],
									"patching_rect" : [ 790.0, 348.0, 90.0, 22.0 ],
									"text" : "nurbs_order $1"
								}

							}
, 							{
								"box" : 								{
									"id" : "obj-25",
									"maxclass" : "toggle",
									"numinlets" : 1,
									"numoutlets" : 1,
									"outlettype" : [ "int" ],
									"parameter_enable" : 0,
									"patching_rect" : [ 37.642860054969788, 426.619042873382568, 24.0, 24.0 ]
								}

							}
, 							{
								"box" : 								{
									"id" : "obj-18",
									"maxclass" : "newobj",
									"numinlets" : 2,
									"numoutlets" : 1,
									"outlettype" : [ "int" ],
									"patching_rect" : [ 37.642860054969788, 398.0, 29.5, 22.0 ],
									"text" : "!- 1"
								}

							}
, 							{
								"box" : 								{
									"id" : "obj-17",
									"maxclass" : "newobj",
									"numinlets" : 2,
									"numoutlets" : 1,
									"outlettype" : [ "" ],
									"patching_rect" : [ 37.642860054969788, 457.0, 52.0, 22.0 ],
									"text" : "gate 1 1"
								}

							}
, 							{
								"box" : 								{
									"id" : "obj-5",
									"maxclass" : "newobj",
									"numinlets" : 0,
									"numoutlets" : 1,
									"outlettype" : [ "" ],
									"patching_rect" : [ 37.642860054969788, 369.619042873382568, 149.0, 22.0 ],
									"text" : "r enable_multiple_textures"
								}

							}
, 							{
								"box" : 								{
									"id" : "obj-6",
									"maxclass" : "message",
									"numinlets" : 2,
									"numoutlets" : 1,
									"outlettype" : [ "" ],
									"patching_rect" : [ 382.142860054969788, 145.619042873382568, 201.0, 22.0 ],
									"text" : "save_state Desktop:/meshwarp.json"
								}

							}
, 							{
								"box" : 								{
									"id" : "obj-15",
									"maxclass" : "message",
									"numinlets" : 2,
									"numoutlets" : 1,
									"outlettype" : [ "" ],
									"patching_rect" : [ 382.142860054969788, 168.619042873382568, 199.0, 22.0 ],
									"text" : "load_state Desktop:/meshwarp.json"
								}

							}
, 							{
								"box" : 								{
									"id" : "obj-13",
									"maxclass" : "message",
									"numinlets" : 2,
									"numoutlets" : 1,
									"outlettype" : [ "" ],
									"patching_rect" : [ 586.380953431129456, 145.619042873382568, 64.0, 22.0 ],
									"text" : "load_state"
								}

							}
, 							{
								"box" : 								{
									"id" : "obj-11",
									"maxclass" : "message",
									"numinlets" : 2,
									"numoutlets" : 1,
									"outlettype" : [ "" ],
									"patching_rect" : [ 652.238093376159668, 145.619042873382568, 67.0, 22.0 ],
									"text" : "save_state"
								}

							}
, 							{
								"box" : 								{
									"bubble" : 1,
									"id" : "obj-42",
									"maxclass" : "comment",
									"numinlets" : 1,
									"numoutlets" : 0,
									"patching_rect" : [ 91.142860054969788, 337.619042873382568, 333.0, 24.0 ],
									"text" : "Send your image/video as a Texture to the jit.gl.meshwarp"
								}

							}
, 							{
								"box" : 								{
									"bubble" : 1,
									"id" : "obj-39",
									"linecount" : 2,
									"maxclass" : "comment",
									"numinlets" : 1,
									"numoutlets" : 0,
									"patching_rect" : [ 777.5, 210.619042873382568, 127.0, 38.0 ],
									"text" : "Mode: 0 (mesh)\nMode: 1 (NURBS)"
								}

							}
, 							{
								"box" : 								{
									"bubble" : 1,
									"id" : "obj-38",
									"maxclass" : "comment",
									"numinlets" : 1,
									"numoutlets" : 0,
									"patching_rect" : [ 782.0, 145.619042873382568, 127.0, 24.0 ],
									"text" : "Number of meshes"
								}

							}
, 							{
								"box" : 								{
									"id" : "obj-12",
									"linecount" : 2,
									"maxclass" : "comment",
									"numinlets" : 1,
									"numoutlets" : 0,
									"patching_rect" : [ 21.0, 70.0, 516.0, 34.0 ],
									"text" : "The jit.gl.meshwarp allows to deform visual material projected on an arbitrary number of planes.\nIt can be used either for video-mapping or as a creative tool."
								}

							}
, 							{
								"box" : 								{
									"fontface" : 1,
									"fontsize" : 32.0,
									"id" : "obj-7",
									"maxclass" : "comment",
									"numinlets" : 1,
									"numoutlets" : 0,
									"patching_rect" : [ 21.0, 19.0, 241.0, 43.0 ],
									"text" : "jit.gl.meshwarp"
								}

							}
, 							{
								"box" : 								{
									"id" : "obj-4",
									"maxclass" : "newobj",
									"numinlets" : 0,
									"numoutlets" : 1,
									"outlettype" : [ "" ],
									"patching_rect" : [ 66.142860054969788, 491.619042873382568, 71.0, 22.0 ],
									"text" : "r meshwarp"
								}

							}
, 							{
								"box" : 								{
									"id" : "obj-3",
									"maxclass" : "newobj",
									"numinlets" : 1,
									"numoutlets" : 0,
									"patching_rect" : [ 606.380953431129456, 328.619042873382568, 73.0, 22.0 ],
									"text" : "s meshwarp"
								}

							}
, 							{
								"box" : 								{
									"id" : "obj-49",
									"maxclass" : "toggle",
									"numinlets" : 1,
									"numoutlets" : 1,
									"outlettype" : [ "int" ],
									"parameter_enable" : 0,
									"patching_rect" : [ 742.690475821495056, 217.619042873382568, 24.0, 24.0 ]
								}

							}
, 							{
								"box" : 								{
									"id" : "obj-47",
									"maxclass" : "message",
									"numinlets" : 2,
									"numoutlets" : 1,
									"outlettype" : [ "" ],
									"patching_rect" : [ 742.690475821495056, 251.619042873382568, 55.0, 22.0 ],
									"text" : "mode $1"
								}

							}
, 							{
								"box" : 								{
									"id" : "obj-30",
									"maxclass" : "number",
									"numinlets" : 1,
									"numoutlets" : 2,
									"outlettype" : [ "", "bang" ],
									"parameter_enable" : 0,
									"patching_rect" : [ 728.190475821495056, 145.619042873382568, 50.0, 22.0 ]
								}

							}
, 							{
								"box" : 								{
									"id" : "obj-28",
									"maxclass" : "message",
									"numinlets" : 2,
									"numoutlets" : 1,
									"outlettype" : [ "" ],
									"patching_rect" : [ 728.190475821495056, 174.619042873382568, 84.0, 22.0 ],
									"text" : "meshcount $1"
								}

							}
, 							{
								"box" : 								{
									"id" : "obj-20",
									"maxclass" : "toggle",
									"numinlets" : 1,
									"numoutlets" : 1,
									"outlettype" : [ "int" ],
									"parameter_enable" : 0,
									"patching_rect" : [ 606.380953431129456, 209.619042873382568, 24.0, 24.0 ]
								}

							}
, 							{
								"box" : 								{
									"id" : "obj-14",
									"maxclass" : "message",
									"numinlets" : 2,
									"numoutlets" : 1,
									"outlettype" : [ "" ],
									"patching_rect" : [ 606.380953431129456, 245.619042873382568, 102.0, 22.0 ],
									"text" : "show_meshes $1"
								}

							}
, 							{
								"box" : 								{
									"id" : "obj-10",
									"maxclass" : "newobj",
									"numinlets" : 1,
									"numoutlets" : 2,
									"outlettype" : [ "jit_gl_texture", "" ],
									"patching_rect" : [ 70.642860054969788, 298.619042873382568, 335.0, 22.0 ],
									"text" : "jit.movie @output_texture 1 @vol 0 @moviefile chickens.mp4"
								}

							}
, 							{
								"box" : 								{
									"fontface" : 0,
									"fontname" : "Arial",
									"fontsize" : 12.0,
									"id" : "obj-16",
									"maxclass" : "jit.fpsgui",
									"numinlets" : 1,
									"numoutlets" : 2,
									"outlettype" : [ "", "" ],
									"patching_rect" : [ 109.142860054969788, 217.738093018531799, 80.0, 36.0 ]
								}

							}
, 							{
								"box" : 								{
									"id" : "obj-8",
									"maxclass" : "message",
									"numinlets" : 2,
									"numoutlets" : 1,
									"outlettype" : [ "" ],
									"patching_rect" : [ 501.142860054969788, 290.619042873382568, 35.0, 22.0 ],
									"text" : "reset"
								}

							}
, 							{
								"box" : 								{
									"id" : "obj-9",
									"maxclass" : "toggle",
									"numinlets" : 1,
									"numoutlets" : 1,
									"outlettype" : [ "int" ],
									"parameter_enable" : 0,
									"patching_rect" : [ 37.642860054969788, 151.642863392829895, 33.476186752319336, 33.476186752319336 ]
								}

							}
, 							{
								"box" : 								{
									"frozen_object_attributes" : 									{
										"rect" : [ 895, 39, 1535, 519 ]
									}
,
									"id" : "obj-2",
									"maxclass" : "newobj",
									"numinlets" : 1,
									"numoutlets" : 3,
									"outlettype" : [ "jit_matrix", "bang", "" ],
									"patching_rect" : [ 37.642860054969788, 188.738093018531799, 162.0, 22.0 ],
									"text" : "jit.world @floating 1 @fsaa 1"
								}

							}
, 							{
								"box" : 								{
									"id" : "obj-1",
									"maxclass" : "newobj",
									"numinlets" : 1,
									"numoutlets" : 0,
									"patching_rect" : [ 37.642860054969788, 522.619042873382568, 275.0, 22.0 ],
									"text" : "jit.gl.meshwarp @show_meshes 1 @meshdim 5 4"
								}

							}
, 							{
								"box" : 								{
									"background" : 1,
									"bgcolor" : [ 1.0, 0.788235, 0.470588, 1.0 ],
									"fontface" : 1,
									"hint" : "",
									"id" : "obj-93",
									"ignoreclick" : 1,
									"legacytextcolor" : 1,
									"maxclass" : "textbutton",
									"numinlets" : 1,
									"numoutlets" : 3,
									"outlettype" : [ "", "", "int" ],
									"parameter_enable" : 0,
									"patching_rect" : [ 72.142860054969788, 158.380956768989563, 20.0, 20.0 ],
									"rounded" : 60.0,
									"text" : "1",
									"textcolor" : [ 0.34902, 0.34902, 0.34902, 1.0 ]
								}

							}
 ],
						"lines" : [ 							{
								"patchline" : 								{
									"destination" : [ "obj-17", 1 ],
									"source" : [ "obj-10", 0 ]
								}

							}
, 							{
								"patchline" : 								{
									"destination" : [ "obj-3", 0 ],
									"midpoints" : [ 661.738093376159668, 196.499992728233337, 595.0, 196.499992728233337, 595.0, 298.499992728233337, 615.880953431129456, 298.499992728233337 ],
									"source" : [ "obj-11", 0 ]
								}

							}
, 							{
								"patchline" : 								{
									"destination" : [ "obj-3", 0 ],
									"midpoints" : [ 595.880953431129456, 298.499992728233337, 615.880953431129456, 298.499992728233337 ],
									"source" : [ "obj-13", 0 ]
								}

							}
, 							{
								"patchline" : 								{
									"destination" : [ "obj-3", 0 ],
									"midpoints" : [ 615.880953431129456, 268.499992728233337, 615.880953431129456, 268.499992728233337 ],
									"source" : [ "obj-14", 0 ]
								}

							}
, 							{
								"patchline" : 								{
									"destination" : [ "obj-3", 0 ],
									"midpoints" : [ 391.642860054969788, 275.119042873382568, 615.880953431129456, 275.119042873382568 ],
									"source" : [ "obj-15", 0 ]
								}

							}
, 							{
								"patchline" : 								{
									"destination" : [ "obj-1", 0 ],
									"source" : [ "obj-17", 0 ]
								}

							}
, 							{
								"patchline" : 								{
									"destination" : [ "obj-25", 0 ],
									"source" : [ "obj-18", 0 ]
								}

							}
, 							{
								"patchline" : 								{
									"destination" : [ "obj-16", 0 ],
									"source" : [ "obj-2", 1 ]
								}

							}
, 							{
								"patchline" : 								{
									"destination" : [ "obj-14", 0 ],
									"source" : [ "obj-20", 0 ]
								}

							}
, 							{
								"patchline" : 								{
									"destination" : [ "obj-17", 0 ],
									"source" : [ "obj-25", 0 ]
								}

							}
, 							{
								"patchline" : 								{
									"destination" : [ "obj-3", 0 ],
									"midpoints" : [ 737.690475821495056, 202.499992728233337, 710.0, 202.499992728233337, 710.0, 298.499992728233337, 615.880953431129456, 298.499992728233337 ],
									"source" : [ "obj-28", 0 ]
								}

							}
, 							{
								"patchline" : 								{
									"destination" : [ "obj-28", 0 ],
									"source" : [ "obj-30", 0 ]
								}

							}
, 							{
								"patchline" : 								{
									"destination" : [ "obj-3", 0 ],
									"source" : [ "obj-36", 0 ]
								}

							}
, 							{
								"patchline" : 								{
									"destination" : [ "obj-1", 0 ],
									"source" : [ "obj-4", 0 ]
								}

							}
, 							{
								"patchline" : 								{
									"destination" : [ "obj-36", 0 ],
									"source" : [ "obj-40", 0 ]
								}

							}
, 							{
								"patchline" : 								{
									"destination" : [ "obj-3", 0 ],
									"midpoints" : [ 752.190475821495056, 298.499992728233337, 615.880953431129456, 298.499992728233337 ],
									"source" : [ "obj-47", 0 ]
								}

							}
, 							{
								"patchline" : 								{
									"destination" : [ "obj-47", 0 ],
									"source" : [ "obj-49", 0 ]
								}

							}
, 							{
								"patchline" : 								{
									"destination" : [ "obj-18", 0 ],
									"source" : [ "obj-5", 0 ]
								}

							}
, 							{
								"patchline" : 								{
									"destination" : [ "obj-3", 0 ],
									"midpoints" : [ 391.642860054969788, 274.619042873382568, 615.880953431129456, 274.619042873382568 ],
									"source" : [ "obj-6", 0 ]
								}

							}
, 							{
								"patchline" : 								{
									"destination" : [ "obj-3", 0 ],
									"source" : [ "obj-8", 0 ]
								}

							}
, 							{
								"patchline" : 								{
									"destination" : [ "obj-2", 0 ],
									"source" : [ "obj-9", 0 ]
								}

							}
 ]
					}
,
					"patching_rect" : [ 43.0, 56.0, 47.0, 22.0 ],
					"saved_object_attributes" : 					{
						"description" : "",
						"digest" : "",
						"globalpatchername" : "",
						"tags" : ""
					}
,
					"text" : "p basic"
				}

			}
 ],
		"lines" : [  ],
		"dependency_cache" : [ 			{
				"name" : "jit.gl.meshwarp.maxpat",
				"bootpath" : "~/Documents/Max 8/Packages/meshwarp/patchers",
				"type" : "JSON",
				"implicit" : 1
			}
, 			{
				"name" : "meshwarp.js",
				"bootpath" : "~/Documents/Max 8/Packages/meshwarp/code",
				"type" : "TEXT",
				"implicit" : 1
			}
 ],
		"autosave" : 0
	}

}
